<svg width="24" height="24" viewBox="0 0 24 24" fill="none" xmlns="http://www.w3.org/2000/svg">
<g clip-path="url(#clip0_0_79)">
<path d="M11 18C12.25 18 13.3125 17.5625 14.1875 16.6875C15.0625 15.8125 15.5 14.75 15.5 13.5C15.5 12.25 15.0625 11.1875 14.1875 10.3125C13.3125 9.4375 12.25 9 11 9C9.75 9 8.6875 9.4375 7.8125 10.3125C6.9375 11.1875 6.5 12.25 6.5 13.5C6.5 14.75 6.9375 15.8125 7.8125 16.6875C8.6875 17.5625 9.75 18 11 18ZM11 16.2C10.25 16.2 9.6125 15.9375 9.0875 15.4125C8.5625 14.8875 8.3 14.25 8.3 13.5C8.3 12.75 8.5625 12.1125 9.0875 11.5875C9.6125 11.0625 10.25 10.8 11 10.8C11.75 10.8 12.3875 11.0625 12.9125 11.5875C13.4375 12.1125 13.7 12.75 13.7 13.5C13.7 14.25 13.4375 14.8875 12.9125 15.4125C12.3875 15.9375 11.75 16.2 11 16.2ZM11 21C8.56667 21 6.35 20.3208 4.35 18.9625C2.35 17.6042 0.9 15.7833 0 13.5C0.9 11.2167 2.35 9.39583 4.35 8.0375C6.35 6.67917 8.56667 6 11 6C13.4333 6 15.65 6.67917 17.65 8.0375C19.65 9.39583 21.1 11.2167 22 13.5C21.1 15.7833 19.65 17.6042 17.65 18.9625C15.65 20.3208 13.4333 21 11 21Z" fill="#929292"/>
</g>
<defs>
<clipPath id="clip0_0_79">
<rect width="24" height="24" fill="white"/>
</clipPath>
</defs>
</svg>
