<svg width="22" height="22" viewBox="0 0 22 22" fill="none" xmlns="http://www.w3.org/2000/svg">
<path d="M11 19.25L9.67083 18.0584C8.12777 16.6681 6.85208 15.4688 5.84375 14.4604C4.83541 13.4521 4.03333 12.5469 3.43749 11.7448C2.84166 10.9427 2.42534 10.2056 2.18854 9.53337C1.95173 8.86114 1.83333 8.17364 1.83333 7.47087C1.83333 6.03475 2.31458 4.83545 3.27708 3.87295C4.23958 2.91045 5.43888 2.4292 6.875 2.4292C7.66944 2.4292 8.42569 2.59725 9.14374 2.93337C9.8618 3.26948 10.4806 3.74309 11 4.3542C11.5194 3.74309 12.1382 3.26948 12.8562 2.93337C13.5743 2.59725 14.3306 2.4292 15.125 2.4292C16.5611 2.4292 17.7604 2.91045 18.7229 3.87295C19.6854 4.83545 20.1667 6.03475 20.1667 7.47087C20.1667 8.17364 20.0483 8.86114 19.8115 9.53337C19.5746 10.2056 19.1583 10.9427 18.5625 11.7448C17.9667 12.5469 17.1646 13.4521 16.1562 14.4604C15.1479 15.4688 13.8722 16.6681 12.3292 18.0584L11 19.25Z" fill="black"/>
</svg>
