<svg width="20" height="20" viewBox="0 0 20 20" fill="none" xmlns="http://www.w3.org/2000/svg">
<g clip-path="url(#clip0_70_1270)">
<path d="M4.19166 14.8167C4.99445 14.2029 5.89167 13.7189 6.88334 13.3647C7.87501 13.0105 8.91389 12.8334 10 12.8334C11.0861 12.8334 12.125 13.0105 13.1167 13.3647C14.1084 13.7189 15.0056 14.2029 15.8084 14.8167C16.3592 14.1714 16.7883 13.4395 17.0952 12.6209C17.4021 11.8024 17.5556 10.9288 17.5556 10.0001C17.5556 7.90659 16.8197 6.12395 15.3479 4.65219C13.8761 3.18043 12.0935 2.44455 10 2.44455C7.90649 2.44455 6.12385 3.18043 4.65209 4.65219C3.18033 6.12395 2.44445 7.90659 2.44445 10.0001C2.44445 10.9288 2.59791 11.8024 2.90486 12.6209C3.21181 13.4395 3.64074 14.1714 4.19166 14.8167ZM10 10.9446C9.0713 10.9446 8.28819 10.6258 7.6507 9.9883C7.01319 9.35081 6.69445 8.5677 6.69445 7.63899C6.69445 6.7103 7.01319 5.92719 7.6507 5.28969C8.28819 4.65219 9.0713 4.33345 10 4.33345C10.9287 4.33345 11.7118 4.65219 12.3493 5.28969C12.9868 5.92719 13.3056 6.7103 13.3056 7.63899C13.3056 8.5677 12.9868 9.35081 12.3493 9.9883C11.7118 10.6258 10.9287 10.9446 10 10.9446ZM10 19.4446C8.69351 19.4446 7.46574 19.1966 6.31666 18.7009C5.1676 18.205 4.16806 17.5321 3.31806 16.6821C2.46806 15.8321 1.79514 14.8325 1.29931 13.6834C0.803473 12.5344 0.555557 11.3066 0.555557 10.0001C0.555557 8.69363 0.803473 7.46585 1.29931 6.31678C1.79514 5.1677 2.46806 4.16817 3.31806 3.31817C4.16806 2.46817 5.1676 1.79525 6.31666 1.29941C7.46574 0.80358 8.69351 0.555664 10 0.555664C11.3065 0.555664 12.5343 0.80358 13.6833 1.29941C14.8324 1.79525 15.832 2.46817 16.682 3.31817C17.532 4.16817 18.2049 5.1677 18.7007 6.31678C19.1965 7.46585 19.4444 8.69363 19.4444 10.0001C19.4444 11.3066 19.1965 12.5344 18.7007 13.6834C18.2049 14.8325 17.532 15.8321 16.682 16.6821C15.832 17.5321 14.8324 18.205 13.6833 18.7009C12.5343 19.1966 11.3065 19.4446 10 19.4446Z" fill="#181818"/>
</g>
<defs>
<clipPath id="clip0_70_1270">
<rect width="20" height="20" fill="white"/>
</clipPath>
</defs>
</svg>
