<svg width="22" height="22" viewBox="0 0 22 22" fill="none" xmlns="http://www.w3.org/2000/svg">
<path d="M11 19.25L9.67083 18.0584C8.12778 16.6681 6.85208 15.4688 5.84375 14.4604C4.83542 13.4521 4.03333 12.5469 3.4375 11.7448C2.84167 10.9427 2.42535 10.2056 2.18854 9.53337C1.95174 8.86114 1.83333 8.17364 1.83333 7.47087C1.83333 6.03475 2.31458 4.83545 3.27708 3.87295C4.23958 2.91045 5.43889 2.4292 6.875 2.4292C7.66944 2.4292 8.42569 2.59725 9.14375 2.93337C9.86181 3.26948 10.4806 3.74309 11 4.3542C11.5194 3.74309 12.1382 3.26948 12.8562 2.93337C13.5743 2.59725 14.3306 2.4292 15.125 2.4292C16.5611 2.4292 17.7604 2.91045 18.7229 3.87295C19.6854 4.83545 20.1667 6.03475 20.1667 7.47087C20.1667 8.17364 20.0483 8.86114 19.8115 9.53337C19.5747 10.2056 19.1583 10.9427 18.5625 11.7448C17.9667 12.5469 17.1646 13.4521 16.1562 14.4604C15.1479 15.4688 13.8722 16.6681 12.3292 18.0584L11 19.25ZM11 16.775C12.4667 15.4611 13.6736 14.3344 14.6208 13.3948C15.5681 12.4552 16.3167 11.6379 16.8667 10.9427C17.4167 10.2476 17.7986 9.62885 18.0125 9.08649C18.2264 8.54413 18.3333 8.00559 18.3333 7.47087C18.3333 6.5542 18.0278 5.79031 17.4167 5.1792C16.8056 4.56809 16.0417 4.26253 15.125 4.26253C14.4069 4.26253 13.7424 4.46496 13.1313 4.86982C12.5201 5.27469 12.1 5.79031 11.8708 6.4167H10.1292C9.9 5.79031 9.47986 5.27469 8.86875 4.86982C8.25764 4.46496 7.59306 4.26253 6.875 4.26253C5.95833 4.26253 5.19444 4.56809 4.58333 5.1792C3.97222 5.79031 3.66667 6.5542 3.66667 7.47087C3.66667 8.00559 3.77361 8.54413 3.9875 9.08649C4.20139 9.62885 4.58333 10.2476 5.13333 10.9427C5.68333 11.6379 6.43194 12.4552 7.37917 13.3948C8.32639 14.3344 9.53333 15.4611 11 16.775Z" fill="#E70101"/>
</svg>
