<svg width="21" height="21" viewBox="0 0 21 21" fill="none" xmlns="http://www.w3.org/2000/svg">
<path d="M5.25 19.25C4.76875 19.25 4.35677 19.0786 4.01406 18.7359C3.67135 18.3932 3.5 17.9812 3.5 17.5V7C3.5 6.51875 3.67135 6.10677 4.01406 5.76406C4.35677 5.42135 4.76875 5.25 5.25 5.25H7C7 4.2875 7.34271 3.46354 8.02812 2.77812C8.71354 2.09271 9.5375 1.75 10.5 1.75C11.4625 1.75 12.2865 2.09271 12.9719 2.77812C13.6573 3.46354 14 4.2875 14 5.25H15.75C16.2312 5.25 16.6432 5.42135 16.9859 5.76406C17.3286 6.10677 17.5 6.51875 17.5 7V17.5C17.5 17.9812 17.3286 18.3932 16.9859 18.7359C16.6432 19.0786 16.2312 19.25 15.75 19.25H5.25ZM5.25 17.5H15.75V7H14V8.75C14 8.99792 13.9161 9.20573 13.7484 9.37344C13.5807 9.54115 13.3729 9.625 13.125 9.625C12.8771 9.625 12.6693 9.54115 12.5016 9.37344C12.3339 9.20573 12.25 8.99792 12.25 8.75V7H8.75V8.75C8.75 8.99792 8.66615 9.20573 8.49844 9.37344C8.33073 9.54115 8.12292 9.625 7.875 9.625C7.62708 9.625 7.41927 9.54115 7.25156 9.37344C7.08385 9.20573 7 8.99792 7 8.75V7H5.25V17.5ZM8.75 5.25H12.25C12.25 4.76875 12.0786 4.35677 11.7359 4.01406C11.3932 3.67135 10.9812 3.5 10.5 3.5C10.0187 3.5 9.60677 3.67135 9.26406 4.01406C8.92135 4.35677 8.75 4.76875 8.75 5.25Z" fill="white"/>
</svg>
