<svg width="16" height="16" viewBox="0 0 16 16" fill="none" xmlns="http://www.w3.org/2000/svg">
<path d="M7.99998 11.6667C8.83331 11.6667 9.54165 11.375 10.125 10.7917C10.7083 10.2083 11 9.5 11 8.66667C11 7.83333 10.7083 7.125 10.125 6.54167C9.54165 5.95833 8.83331 5.66667 7.99998 5.66667C7.16665 5.66667 6.45831 5.95833 5.87498 6.54167C5.29165 7.125 4.99998 7.83333 4.99998 8.66667C4.99998 9.5 5.29165 10.2083 5.87498 10.7917C6.45831 11.375 7.16665 11.6667 7.99998 11.6667ZM7.99998 10.3333C7.53331 10.3333 7.13887 10.1722 6.81665 9.85C6.49442 9.52778 6.33331 9.13333 6.33331 8.66667C6.33331 8.2 6.49442 7.80556 6.81665 7.48333C7.13887 7.16111 7.53331 7 7.99998 7C8.46665 7 8.86109 7.16111 9.18331 7.48333C9.50554 7.80556 9.66665 8.2 9.66665 8.66667C9.66665 9.13333 9.50554 9.52778 9.18331 9.85C8.86109 10.1722 8.46665 10.3333 7.99998 10.3333ZM2.66665 14C2.29998 14 1.98609 13.8694 1.72498 13.6083C1.46387 13.3472 1.33331 13.0333 1.33331 12.6667V4.66667C1.33331 4.3 1.46387 3.98611 1.72498 3.725C1.98609 3.46389 2.29998 3.33333 2.66665 3.33333H4.76665L5.99998 2H9.99998L11.2333 3.33333H13.3333C13.7 3.33333 14.0139 3.46389 14.275 3.725C14.5361 3.98611 14.6666 4.3 14.6666 4.66667V12.6667C14.6666 13.0333 14.5361 13.3472 14.275 13.6083C14.0139 13.8694 13.7 14 13.3333 14H2.66665Z" fill="#707070"/>
</svg>
