<svg width="22" height="22" viewBox="0 0 22 22" fill="none" xmlns="http://www.w3.org/2000/svg">
<path d="M5.36254 15.6752C6.14171 15.0793 7.01254 14.6095 7.97504 14.2658C8.93754 13.922 9.94587 13.7502 11 13.7502C12.0542 13.7502 13.0625 13.922 14.025 14.2658C14.9875 14.6095 15.8584 15.0793 16.6375 15.6752C17.1723 15.0488 17.5886 14.3384 17.8865 13.5439C18.1844 12.7495 18.3334 11.9016 18.3334 11.0002C18.3334 8.96822 17.6191 7.23801 16.1907 5.80954C14.7622 4.38107 13.032 3.66683 11 3.66683C8.9681 3.66683 7.23789 4.38107 5.80942 5.80954C4.38094 7.23801 3.66671 8.96822 3.66671 11.0002C3.66671 11.9016 3.81567 12.7495 4.11358 13.5439C4.4115 14.3384 4.82782 15.0488 5.36254 15.6752ZM11 11.9168C10.0987 11.9168 9.33858 11.6075 8.71983 10.9887C8.10108 10.37 7.79171 9.60989 7.79171 8.7085C7.79171 7.80711 8.10108 7.04704 8.71983 6.42829C9.33858 5.80954 10.0987 5.50016 11 5.50016C11.9014 5.50016 12.6615 5.80954 13.2802 6.42829C13.899 7.04704 14.2084 7.80711 14.2084 8.7085C14.2084 9.60989 13.899 10.37 13.2802 10.9887C12.6615 11.6075 11.9014 11.9168 11 11.9168ZM11 20.1668C9.73199 20.1668 8.54032 19.9262 7.42504 19.445C6.30976 18.9637 5.33962 18.3106 4.51462 17.4856C3.68962 16.6606 3.0365 15.6904 2.55525 14.5752C2.074 13.4599 1.83337 12.2682 1.83337 11.0002C1.83337 9.73211 2.074 8.54044 2.55525 7.42516C3.0365 6.30989 3.68962 5.33975 4.51462 4.51475C5.33962 3.68975 6.30976 3.03662 7.42504 2.55537C8.54032 2.07412 9.73199 1.8335 11 1.8335C12.2681 1.8335 13.4598 2.07412 14.575 2.55537C15.6903 3.03662 16.6605 3.68975 17.4855 4.51475C18.3105 5.33975 18.9636 6.30989 19.4448 7.42516C19.9261 8.54044 20.1667 9.73211 20.1667 11.0002C20.1667 12.2682 19.9261 13.4599 19.4448 14.5752C18.9636 15.6904 18.3105 16.6606 17.4855 17.4856C16.6605 18.3106 15.6903 18.9637 14.575 19.445C13.4598 19.9262 12.2681 20.1668 11 20.1668Z" fill="black"/>
</svg>
