<svg width="14" height="18" viewBox="0 0 14 18" fill="none" xmlns="http://www.w3.org/2000/svg">
<path d="M1.75 17.5C1.26875 17.5 0.856771 17.3286 0.514062 16.9859C0.171354 16.6432 0 16.2312 0 15.75V5.25C0 4.76875 0.171354 4.35677 0.514062 4.01406C0.856771 3.67135 1.26875 3.5 1.75 3.5H3.5C3.5 2.5375 3.84271 1.71354 4.52812 1.02812C5.21354 0.342708 6.0375 0 7 0C7.9625 0 8.78646 0.342708 9.47188 1.02812C10.1573 1.71354 10.5 2.5375 10.5 3.5H12.25C12.7312 3.5 13.1432 3.67135 13.4859 4.01406C13.8286 4.35677 14 4.76875 14 5.25V15.75C14 16.2312 13.8286 16.6432 13.4859 16.9859C13.1432 17.3286 12.7312 17.5 12.25 17.5H1.75ZM1.75 15.75H12.25V5.25H10.5V7C10.5 7.24792 10.4161 7.45573 10.2484 7.62344C10.0807 7.79115 9.87292 7.875 9.625 7.875C9.37708 7.875 9.16927 7.79115 9.00156 7.62344C8.83385 7.45573 8.75 7.24792 8.75 7V5.25H5.25V7C5.25 7.24792 5.16615 7.45573 4.99844 7.62344C4.83073 7.79115 4.62292 7.875 4.375 7.875C4.12708 7.875 3.91927 7.79115 3.75156 7.62344C3.58385 7.45573 3.5 7.24792 3.5 7V5.25H1.75V15.75ZM5.25 3.5H8.75C8.75 3.01875 8.57865 2.60677 8.23594 2.26406C7.89323 1.92135 7.48125 1.75 7 1.75C6.51875 1.75 6.10677 1.92135 5.76406 2.26406C5.42135 2.60677 5.25 3.01875 5.25 3.5Z" fill="white"/>
</svg>
