<svg width="22" height="24" viewBox="0 0 22 24" fill="none" xmlns="http://www.w3.org/2000/svg">
<path d="M17.9407 21L12.1741 14.7C11.7164 15.1 11.1901 15.4167 10.5951 15.65C10.0001 15.8833 9.36702 16 8.69577 16C7.03289 16 5.62555 15.3708 4.47374 14.1125C3.32194 12.8542 2.74603 11.3167 2.74603 9.5C2.74603 7.68333 3.32194 6.14583 4.47374 4.8875C5.62555 3.62917 7.03289 3 8.69577 3C10.3586 3 11.766 3.62917 12.9178 4.8875C14.0696 6.14583 14.6455 7.68333 14.6455 9.5C14.6455 10.2333 14.5387 10.925 14.3251 11.575C14.1116 12.225 13.8217 12.8 13.4556 13.3L19.2222 19.6L17.9407 21ZM8.69577 14C9.83995 14 10.8125 13.5625 11.6134 12.6875C12.4144 11.8125 12.8148 10.75 12.8148 9.5C12.8148 8.25 12.4144 7.1875 11.6134 6.3125C10.8125 5.4375 9.83995 5 8.69577 5C7.55159 5 6.57904 5.4375 5.77811 6.3125C4.97718 7.1875 4.57672 8.25 4.57672 9.5C4.57672 10.75 4.97718 11.8125 5.77811 12.6875C6.57904 13.5625 7.55159 14 8.69577 14Z" fill="#969696"/>
</svg>
