<svg width="16" height="16" viewBox="0 0 16 16" fill="none" xmlns="http://www.w3.org/2000/svg">
<path d="M8 14.6667C7.08889 14.6667 6.22778 14.4917 5.41667 14.1417C4.60556 13.7917 3.89722 13.3139 3.29167 12.7084C2.68611 12.1028 2.20833 11.3945 1.85833 10.5834C1.50833 9.77226 1.33333 8.91115 1.33333 8.00004C1.33333 7.07782 1.51389 6.21115 1.875 5.40004C2.23611 4.58893 2.725 3.88337 3.34167 3.28337C3.95833 2.68337 4.67778 2.20837 5.5 1.85837C6.32222 1.50837 7.2 1.33337 8.13333 1.33337C9.02222 1.33337 9.86111 1.48615 10.65 1.79171C11.4389 2.09726 12.1306 2.51949 12.725 3.05837C13.3194 3.59726 13.7917 4.23615 14.1417 4.97504C14.4917 5.71393 14.6667 6.51115 14.6667 7.36671C14.6667 8.64448 14.2778 9.62504 13.5 10.3084C12.7222 10.9917 11.7778 11.3334 10.6667 11.3334H9.43333C9.33333 11.3334 9.26389 11.3612 9.225 11.4167C9.18611 11.4723 9.16667 11.5334 9.16667 11.6C9.16667 11.7334 9.25 11.925 9.41667 12.175C9.58333 12.425 9.66667 12.7112 9.66667 13.0334C9.66667 13.5889 9.51389 14 9.20833 14.2667C8.90278 14.5334 8.5 14.6667 8 14.6667ZM4.33333 8.66671C4.62222 8.66671 4.86111 8.57226 5.05 8.38337C5.23889 8.19448 5.33333 7.9556 5.33333 7.66671C5.33333 7.37782 5.23889 7.13893 5.05 6.95004C4.86111 6.76115 4.62222 6.66671 4.33333 6.66671C4.04444 6.66671 3.80556 6.76115 3.61667 6.95004C3.42778 7.13893 3.33333 7.37782 3.33333 7.66671C3.33333 7.9556 3.42778 8.19448 3.61667 8.38337C3.80556 8.57226 4.04444 8.66671 4.33333 8.66671ZM6.33333 6.00004C6.62222 6.00004 6.86111 5.9056 7.05 5.71671C7.23889 5.52782 7.33333 5.28893 7.33333 5.00004C7.33333 4.71115 7.23889 4.47226 7.05 4.28337C6.86111 4.09449 6.62222 4.00004 6.33333 4.00004C6.04444 4.00004 5.80555 4.09449 5.61667 4.28337C5.42778 4.47226 5.33333 4.71115 5.33333 5.00004C5.33333 5.28893 5.42778 5.52782 5.61667 5.71671C5.80555 5.9056 6.04444 6.00004 6.33333 6.00004ZM9.66667 6.00004C9.95555 6.00004 10.1944 5.9056 10.3833 5.71671C10.5722 5.52782 10.6667 5.28893 10.6667 5.00004C10.6667 4.71115 10.5722 4.47226 10.3833 4.28337C10.1944 4.09449 9.95555 4.00004 9.66667 4.00004C9.37778 4.00004 9.13889 4.09449 8.95 4.28337C8.76111 4.47226 8.66667 4.71115 8.66667 5.00004C8.66667 5.28893 8.76111 5.52782 8.95 5.71671C9.13889 5.9056 9.37778 6.00004 9.66667 6.00004ZM11.6667 8.66671C11.9556 8.66671 12.1944 8.57226 12.3833 8.38337C12.5722 8.19448 12.6667 7.9556 12.6667 7.66671C12.6667 7.37782 12.5722 7.13893 12.3833 6.95004C12.1944 6.76115 11.9556 6.66671 11.6667 6.66671C11.3778 6.66671 11.1389 6.76115 10.95 6.95004C10.7611 7.13893 10.6667 7.37782 10.6667 7.66671C10.6667 7.9556 10.7611 8.19448 10.95 8.38337C11.1389 8.57226 11.3778 8.66671 11.6667 8.66671Z" fill="#474747"/>
</svg>
