<svg width="31" height="31" viewBox="0 0 31 31" fill="none" xmlns="http://www.w3.org/2000/svg">
<path d="M15.5 27.1251L13.6271 25.4459C11.4528 23.4869 9.65525 21.7969 8.23442 20.3761C6.81358 18.9553 5.68337 17.6797 4.84379 16.5495C4.00421 15.4193 3.41758 14.3806 3.08389 13.4334C2.75021 12.4862 2.58337 11.5174 2.58337 10.5271C2.58337 8.50353 3.2615 6.8136 4.61775 5.45735C5.974 4.1011 7.66393 3.42297 9.68754 3.42297C10.807 3.42297 11.8726 3.65978 12.8844 4.13339C13.8962 4.607 14.7681 5.27436 15.5 6.13547C16.232 5.27436 17.1039 4.607 18.1157 4.13339C19.1275 3.65978 20.1931 3.42297 21.3125 3.42297C23.3362 3.42297 25.0261 4.1011 26.3823 5.45735C27.7386 6.8136 28.4167 8.50353 28.4167 10.5271C28.4167 11.5174 28.2499 12.4862 27.9162 13.4334C27.5825 14.3806 26.9959 15.4193 26.1563 16.5495C25.3167 17.6797 24.1865 18.9553 22.7657 20.3761C21.3448 21.7969 19.5473 23.4869 17.373 25.4459L15.5 27.1251ZM15.5 23.6376C17.5667 21.7862 19.2674 20.1985 20.6021 18.8745C21.9368 17.5506 22.9917 16.3988 23.7667 15.4193C24.5417 14.4398 25.0799 13.5679 25.3813 12.8037C25.6827 12.0395 25.8334 11.2806 25.8334 10.5271C25.8334 9.23547 25.4028 8.15908 24.5417 7.29797C23.6806 6.43686 22.6042 6.00631 21.3125 6.00631C20.3007 6.00631 19.3643 6.29155 18.5032 6.86204C17.6421 7.43252 17.05 8.15908 16.7271 9.04172H14.273C13.95 8.15908 13.358 7.43252 12.4969 6.86204C11.6358 6.29155 10.6993 6.00631 9.68754 6.00631C8.39587 6.00631 7.31949 6.43686 6.45837 7.29797C5.59726 8.15908 5.16671 9.23547 5.16671 10.5271C5.16671 11.2806 5.3174 12.0395 5.61879 12.8037C5.92018 13.5679 6.45837 14.4398 7.23337 15.4193C8.00837 16.3988 9.06323 17.5506 10.398 18.8745C11.7327 20.1985 13.4334 21.7862 15.5 23.6376Z" fill="#E70101"/>
<path d="M15.5 27.9167L13.5727 26.1955C11.3353 24.1873 9.48556 22.455 8.02348 20.9984C6.5614 19.542 5.39837 18.2345 4.53441 17.0759C3.67046 15.9173 3.0668 14.8526 2.72342 13.8816C2.38006 12.9106 2.20837 11.9175 2.20837 10.9024C2.20837 8.82801 2.90618 7.09569 4.30181 5.70541C5.69743 4.31513 7.43643 3.62 9.51879 3.62C10.6707 3.62 11.7673 3.86274 12.8085 4.34824C13.8497 4.83373 14.7469 5.51784 15.5 6.40055C16.2533 5.51784 17.1504 4.83373 18.1916 4.34824C19.2327 3.86274 20.3294 3.62 21.4812 3.62C23.5637 3.62 25.3027 4.31513 26.6983 5.70541C28.094 7.09569 28.7917 8.82801 28.7917 10.9024C28.7917 11.9175 28.62 12.9106 28.2767 13.8816C27.9333 14.8526 27.3297 15.9173 26.4656 17.0759C25.6017 18.2345 24.4387 19.542 22.9766 20.9984C21.5146 22.455 19.6648 24.1873 17.4273 26.1955L15.5 27.9167Z" fill="#E70101"/>
</svg>
