<svg width="15" height="15" viewBox="0 0 15 15" fill="none" xmlns="http://www.w3.org/2000/svg">
<g clip-path="url(#clip0_71_1465)">
<path d="M14.7917 1.05933C14.7917 2.74722 14.4237 4.41488 13.6878 6.06227C12.9519 7.7096 11.9088 9.20849 10.5584 10.5588C9.20816 11.9091 7.70927 12.9522 6.06194 13.6881C4.41454 14.424 2.74691 14.792 1.05902 14.792C0.815967 14.792 0.613423 14.711 0.451384 14.5489C0.289347 14.3869 0.208328 14.1844 0.208328 13.9413L0.208328 10.66C0.208328 10.471 0.272468 10.3022 0.400747 10.1537C0.529027 10.0051 0.680934 9.91738 0.856478 9.89037L3.69212 9.36377C3.90817 9.33677 4.09047 9.34349 4.239 9.38399C4.38753 9.42449 4.51581 9.49878 4.62384 9.60681L6.60877 11.5715C7.10838 11.3014 7.59116 10.9807 8.05699 10.6094C8.52283 10.2381 8.97183 9.82961 9.40394 9.38399C9.82255 8.96544 10.2107 8.52655 10.5685 8.06744C10.9264 7.60833 11.2538 7.12221 11.5509 6.6091L9.64699 4.70521C9.52544 4.58366 9.43433 4.42499 9.37355 4.22921C9.31277 4.03344 9.29588 3.84099 9.32288 3.65194L9.89005 0.856827C9.94405 0.667771 10.0419 0.512493 10.1837 0.390938C10.3255 0.269438 10.4842 0.20866 10.6597 0.20866H13.941C14.184 0.20866 14.3865 0.28966 14.5486 0.451715C14.7107 0.61377 14.7917 0.816326 14.7917 1.05933Z" fill="#F06200"/>
</g>
<defs>
<clipPath id="clip0_71_1465">
<rect width="15" height="15" fill="white" transform="matrix(0 -1 1 0 0 15)"/>
</clipPath>
</defs>
</svg>
