<svg width="20" height="20" viewBox="0 0 20 20" fill="none" xmlns="http://www.w3.org/2000/svg">
<path d="M4.99999 18.3335C4.54166 18.3335 4.1493 18.1703 3.82291 17.8439C3.49652 17.5175 3.33333 17.1252 3.33333 16.6668V8.3335C3.33333 7.87516 3.49652 7.4828 3.82291 7.15641C4.1493 6.83002 4.54166 6.66683 4.99999 6.66683H5.83333V5.00016C5.83333 3.84739 6.23958 2.86475 7.05208 2.05225C7.86458 1.23975 8.84722 0.833496 9.99999 0.833496C11.1528 0.833496 12.1354 1.23975 12.9479 2.05225C13.7604 2.86475 14.1667 3.84739 14.1667 5.00016V6.66683H15C15.4583 6.66683 15.8507 6.83002 16.1771 7.15641C16.5035 7.4828 16.6667 7.87516 16.6667 8.3335V16.6668C16.6667 17.1252 16.5035 17.5175 16.1771 17.8439C15.8507 18.1703 15.4583 18.3335 15 18.3335H4.99999ZM9.99999 14.1668C10.4583 14.1668 10.8507 14.0036 11.1771 13.6772C11.5035 13.3509 11.6667 12.9585 11.6667 12.5002C11.6667 12.0418 11.5035 11.6495 11.1771 11.3231C10.8507 10.9967 10.4583 10.8335 9.99999 10.8335C9.54166 10.8335 9.1493 10.9967 8.82291 11.3231C8.49652 11.6495 8.33333 12.0418 8.33333 12.5002C8.33333 12.9585 8.49652 13.3509 8.82291 13.6772C9.1493 14.0036 9.54166 14.1668 9.99999 14.1668ZM7.49999 6.66683H12.5V5.00016C12.5 4.30572 12.2569 3.71544 11.7708 3.22933C11.2847 2.74322 10.6944 2.50016 9.99999 2.50016C9.30555 2.50016 8.71527 2.74322 8.22916 3.22933C7.74305 3.71544 7.49999 4.30572 7.49999 5.00016V6.66683Z" fill="#3A3A3A"/>
</svg>
