<svg width="20" height="20" viewBox="0 0 20 20" fill="none" xmlns="http://www.w3.org/2000/svg">
<path d="M0.833252 17.5L9.99992 1.66667L19.1666 17.5H0.833252ZM9.99992 15C10.236 15 10.4339 14.9201 10.5937 14.7604C10.7534 14.6007 10.8333 14.4028 10.8333 14.1667C10.8333 13.9306 10.7534 13.7326 10.5937 13.5729C10.4339 13.4132 10.236 13.3333 9.99992 13.3333C9.76381 13.3333 9.56589 13.4132 9.40617 13.5729C9.24645 13.7326 9.16658 13.9306 9.16658 14.1667C9.16658 14.4028 9.24645 14.6007 9.40617 14.7604C9.56589 14.9201 9.76381 15 9.99992 15ZM9.16658 12.5H10.8333V8.33334H9.16658V12.5Z" fill="black"/>
</svg>
