<svg width="17" height="17" viewBox="0 0 17 17" fill="none" xmlns="http://www.w3.org/2000/svg">
<path d="M8.98875 16.49C8.64875 16.83 8.245 17 7.7775 17C7.31 17 6.90625 16.83 6.56625 16.49L0.48875 10.4125C0.162917 10.0867 0 9.68646 0 9.21187C0 8.73729 0.162917 8.33708 0.48875 8.01125L7.96875 0.51C8.12458 0.354167 8.30875 0.230208 8.52125 0.138125C8.73375 0.0460417 8.96042 0 9.20125 0H15.2788C15.7463 0 16.1465 0.166458 16.4794 0.499375C16.8123 0.832292 16.9788 1.2325 16.9788 1.7V7.7775C16.9788 8.01833 16.9327 8.245 16.8406 8.4575C16.7485 8.67 16.6246 8.85417 16.4688 9.01L8.98875 16.49ZM13.1538 5.1C13.5079 5.1 13.809 4.97604 14.0569 4.72813C14.3048 4.48021 14.4288 4.17917 14.4288 3.825C14.4288 3.47083 14.3048 3.16979 14.0569 2.92188C13.809 2.67396 13.5079 2.55 13.1538 2.55C12.7996 2.55 12.4985 2.67396 12.2506 2.92188C12.0027 3.16979 11.8787 3.47083 11.8787 3.825C11.8787 4.17917 12.0027 4.48021 12.2506 4.72813C12.4985 4.97604 12.7996 5.1 13.1538 5.1Z" fill="#F06200"/>
</svg>
