<svg width="24" height="24" viewBox="0 0 24 24" fill="none" xmlns="http://www.w3.org/2000/svg">
<g clip-path="url(#clip0_0_24)">
<path d="M11 18C12.25 18 13.3125 17.5625 14.1875 16.6875C15.0625 15.8125 15.5 14.75 15.5 13.5C15.5 12.25 15.0625 11.1875 14.1875 10.3125C13.3125 9.4375 12.25 9 11 9C9.75 9 8.6875 9.4375 7.8125 10.3125C6.9375 11.1875 6.5 12.25 6.5 13.5C6.5 14.75 6.9375 15.8125 7.8125 16.6875C8.6875 17.5625 9.75 18 11 18ZM11 16.2C10.25 16.2 9.6125 15.9375 9.0875 15.4125C8.5625 14.8875 8.3 14.25 8.3 13.5C8.3 12.75 8.5625 12.1125 9.0875 11.5875C9.6125 11.0625 10.25 10.8 11 10.8C11.75 10.8 12.3875 11.0625 12.9125 11.5875C13.4375 12.1125 13.7 12.75 13.7 13.5C13.7 14.25 13.4375 14.8875 12.9125 15.4125C12.3875 15.9375 11.75 16.2 11 16.2ZM11 21C8.56667 21 6.35 20.3208 4.35 18.9625C2.35 17.6042 0.9 15.7833 0 13.5C0.9 11.2167 2.35 9.39583 4.35 8.0375C6.35 6.67917 8.56667 6 11 6C13.4333 6 15.65 6.67917 17.65 8.0375C19.65 9.39583 21.1 11.2167 22 13.5C21.1 15.7833 19.65 17.6042 17.65 18.9625C15.65 20.3208 13.4333 21 11 21Z" fill="#929292"/>
<path d="M18.8 23.8L14.6 19.65C14.0167 19.8333 13.4292 19.9708 12.8375 20.0625C12.2458 20.1542 11.6333 20.2 11 20.2C8.48333 20.2 6.24167 19.5042 4.275 18.1125C2.30833 16.7208 0.883333 14.9167 0 12.7C0.35 11.8167 0.791667 10.9958 1.325 10.2375C1.85833 9.47917 2.46667 8.8 3.15 8.2L0.4 5.4L1.8 4L20.2 22.4L18.8 23.8ZM11 17.2C11.1833 17.2 11.3542 17.1917 11.5125 17.175C11.6708 17.1583 11.8417 17.125 12.025 17.075L6.625 11.675C6.575 11.8583 6.54167 12.0292 6.525 12.1875C6.50833 12.3458 6.5 12.5167 6.5 12.7C6.5 13.95 6.9375 15.0125 7.8125 15.8875C8.6875 16.7625 9.75 17.2 11 17.2ZM18.3 17.65L15.125 14.5C15.2417 14.2167 15.3333 13.9292 15.4 13.6375C15.4667 13.3458 15.5 13.0333 15.5 12.7C15.5 11.45 15.0625 10.3875 14.1875 9.5125C13.3125 8.6375 12.25 8.2 11 8.2C10.6667 8.2 10.3542 8.23333 10.0625 8.3C9.77083 8.36667 9.48333 8.46667 9.2 8.6L6.65 6.05C7.33333 5.76667 8.03333 5.55417 8.75 5.4125C9.46667 5.27083 10.2167 5.2 11 5.2C13.5167 5.2 15.7583 5.89583 17.725 7.2875C19.6917 8.67917 21.1167 10.4833 22 12.7C21.6167 13.6833 21.1125 14.5958 20.4875 15.4375C19.8625 16.2792 19.1333 17.0167 18.3 17.65ZM13.675 13.05L10.675 10.05C11.1417 9.96667 11.5708 10.0042 11.9625 10.1625C12.3542 10.3208 12.6917 10.55 12.975 10.85C13.2583 11.15 13.4625 11.4958 13.5875 11.8875C13.7125 12.2792 13.7417 12.6667 13.675 13.05Z" fill="#929292"/>
</g>
<defs>
<clipPath id="clip0_0_24">
<rect width="24" height="24" fill="white"/>
</clipPath>
</defs>
</svg>
