<svg width="38" height="38" viewBox="0 0 38 38" fill="none" xmlns="http://www.w3.org/2000/svg">
<path d="M26.9167 9.5C29.5556 9.5 31.7986 10.4236 33.6458 12.2708C35.4931 14.1181 36.4167 16.3611 36.4167 19C36.4167 21.6389 35.4931 23.8819 33.6458 25.7292C31.7986 27.5764 29.5556 28.5 26.9167 28.5H11.0833C8.44444 28.5 6.20139 27.5764 4.35416 25.7292C2.50694 23.8819 1.58333 21.6389 1.58333 19C1.58333 16.3611 2.50694 14.1181 4.35416 12.2708C6.20139 10.4236 8.44444 9.5 11.0833 9.5H26.9167ZM11.0833 14.25C9.76389 14.25 8.64236 14.7118 7.71875 15.6354C6.79514 16.559 6.33333 17.6806 6.33333 19C6.33333 20.3194 6.79514 21.441 7.71875 22.3646C8.64236 23.2882 9.76389 23.75 11.0833 23.75C12.4028 23.75 13.5243 23.2882 14.4479 22.3646C15.3715 21.441 15.8333 20.3194 15.8333 19C15.8333 17.6806 15.3715 16.559 14.4479 15.6354C13.5243 14.7118 12.4028 14.25 11.0833 14.25Z" fill="#7E7E7E"/>
</svg>
