<svg width="21" height="21" viewBox="0 0 21 21" fill="none" xmlns="http://www.w3.org/2000/svg">
<path d="M10.5 18.375C8.3125 18.375 6.45312 17.6094 4.92188 16.0781C3.39062 14.5469 2.625 12.6875 2.625 10.5C2.625 8.3125 3.39062 6.45312 4.92188 4.92188C6.45312 3.39062 8.3125 2.625 10.5 2.625C10.7042 2.625 10.9047 2.63229 11.1016 2.64687C11.2984 2.66146 11.4917 2.68333 11.6812 2.7125C11.0833 3.13542 10.6057 3.68594 10.2484 4.36406C9.89115 5.04219 9.7125 5.775 9.7125 6.5625C9.7125 7.875 10.1719 8.99062 11.0906 9.90937C12.0094 10.8281 13.125 11.2875 14.4375 11.2875C15.2396 11.2875 15.976 11.1089 16.6469 10.7516C17.3177 10.3943 17.8646 9.91667 18.2875 9.31875C18.3167 9.50833 18.3385 9.70156 18.3531 9.89844C18.3677 10.0953 18.375 10.2958 18.375 10.5C18.375 12.6875 17.6094 14.5469 16.0781 16.0781C14.5469 17.6094 12.6875 18.375 10.5 18.375Z" fill="#3A3A3A"/>
</svg>
