<svg width="23" height="23" viewBox="0 0 23 23" fill="none" xmlns="http://www.w3.org/2000/svg">
<path d="M0.958496 20.1253L11.5002 1.91699L22.0418 20.1253H0.958496ZM11.5002 17.2503C11.7717 17.2503 11.9993 17.1585 12.183 16.9748C12.3667 16.7911 12.4585 16.5635 12.4585 16.292C12.4585 16.0205 12.3667 15.7929 12.183 15.6092C11.9993 15.4255 11.7717 15.3337 11.5002 15.3337C11.2286 15.3337 11.001 15.4255 10.8174 15.6092C10.6337 15.7929 10.5418 16.0205 10.5418 16.292C10.5418 16.5635 10.6337 16.7911 10.8174 16.9748C11.001 17.1585 11.2286 17.2503 11.5002 17.2503ZM10.5418 14.3753H12.4585V9.58366H10.5418V14.3753Z" fill="#E70101"/>
</svg>
