<svg width="21" height="21" viewBox="0 0 21 21" fill="none" xmlns="http://www.w3.org/2000/svg">
<path d="M10.5 14.875C10.7479 14.875 10.9557 14.7911 11.1234 14.6234C11.2911 14.4557 11.375 14.2479 11.375 14C11.375 13.7521 11.2911 13.5443 11.1234 13.3766C10.9557 13.2089 10.7479 13.125 10.5 13.125C10.2521 13.125 10.0443 13.2089 9.87656 13.3766C9.70885 13.5443 9.625 13.7521 9.625 14C9.625 14.2479 9.70885 14.4557 9.87656 14.6234C10.0443 14.7911 10.2521 14.875 10.5 14.875ZM9.625 11.375H11.375V6.125H9.625V11.375ZM7.21875 18.375L2.625 13.7812V7.21875L7.21875 2.625H13.7812L18.375 7.21875V13.7812L13.7812 18.375H7.21875Z" fill="#3A3A3A"/>
</svg>
