<svg width="17" height="17" viewBox="0 0 17 17" fill="none" xmlns="http://www.w3.org/2000/svg">
<path d="M4.14375 12.1123C4.74584 11.6519 5.41876 11.2889 6.16251 11.0233C6.90626 10.7576 7.68542 10.6248 8.50001 10.6248C9.31459 10.6248 10.0938 10.7576 10.8375 11.0233C11.5813 11.2889 12.2542 11.6519 12.8563 12.1123C13.2694 11.6283 13.5912 11.0794 13.8214 10.4655C14.0516 9.85157 14.1667 9.19636 14.1667 8.49984C14.1667 6.9297 13.6148 5.59272 12.5109 4.4889C11.4071 3.38508 10.0701 2.83317 8.50001 2.83317C6.92987 2.83317 5.59289 3.38508 4.48907 4.4889C3.38525 5.59272 2.83334 6.9297 2.83334 8.49984C2.83334 9.19636 2.94844 9.85157 3.17865 10.4655C3.40886 11.0794 3.73056 11.6283 4.14375 12.1123ZM8.50001 9.20817C7.80348 9.20817 7.21615 8.96911 6.73803 8.49098C6.2599 8.01286 6.02084 7.42553 6.02084 6.729C6.02084 6.03248 6.2599 5.44515 6.73803 4.96702C7.21615 4.4889 7.80348 4.24984 8.50001 4.24984C9.19653 4.24984 9.78386 4.4889 10.262 4.96702C10.7401 5.44515 10.9792 6.03248 10.9792 6.729C10.9792 7.42553 10.7401 8.01286 10.262 8.49098C9.78386 8.96911 9.19653 9.20817 8.50001 9.20817ZM8.50001 15.5832C7.52014 15.5832 6.59931 15.3972 5.7375 15.0254C4.8757 14.6535 4.12605 14.1488 3.48855 13.5113C2.85105 12.8738 2.34636 12.1241 1.97448 11.2623C1.60261 10.4005 1.41667 9.4797 1.41667 8.49984C1.41667 7.51998 1.60261 6.59914 1.97448 5.73734C2.34636 4.87553 2.85105 4.12588 3.48855 3.48838C4.12605 2.85088 4.8757 2.34619 5.7375 1.97432C6.59931 1.60244 7.52014 1.4165 8.50001 1.4165C9.47987 1.4165 10.4007 1.60244 11.2625 1.97432C12.1243 2.34619 12.874 2.85088 13.5115 3.48838C14.149 4.12588 14.6537 4.87553 15.0255 5.73734C15.3974 6.59914 15.5833 7.51998 15.5833 8.49984C15.5833 9.4797 15.3974 10.4005 15.0255 11.2623C14.6537 12.1241 14.149 12.8738 13.5115 13.5113C12.874 14.1488 12.1243 14.6535 11.2625 15.0254C10.4007 15.3972 9.47987 15.5832 8.50001 15.5832Z" fill="#3A3A3A"/>
</svg>
