<svg width="12" height="22" viewBox="0 0 12 22" fill="none" xmlns="http://www.w3.org/2000/svg">
<path d="M4.52222 22V19.3722C3.44259 19.1278 2.51065 18.6593 1.72639 17.9667C0.94213 17.2741 0.366667 16.2963 0 15.0333L2.26111 14.1167C2.56667 15.0944 3.01991 15.838 3.62083 16.3472C4.22176 16.8565 5.01111 17.1111 5.98889 17.1111C6.82407 17.1111 7.53194 16.9227 8.1125 16.5458C8.69306 16.169 8.98333 15.5833 8.98333 14.7889C8.98333 14.0759 8.75926 13.5106 8.31111 13.0931C7.86296 12.6755 6.82407 12.2019 5.19444 11.6722C3.44259 11.1222 2.24074 10.4653 1.58889 9.70139C0.937037 8.9375 0.611111 8.00556 0.611111 6.90556C0.611111 5.58148 1.03889 4.55278 1.89444 3.81944C2.75 3.08611 3.62593 2.66852 4.52222 2.56667V0H6.96667V2.56667C7.98519 2.72963 8.82546 3.10139 9.4875 3.68194C10.1495 4.2625 10.6333 4.97037 10.9389 5.80556L8.67778 6.78333C8.43333 6.13148 8.08704 5.64259 7.63889 5.31667C7.19074 4.99074 6.57963 4.82778 5.80556 4.82778C4.90926 4.82778 4.22685 5.02639 3.75833 5.42361C3.28981 5.82083 3.05556 6.31481 3.05556 6.90556C3.05556 7.57778 3.36111 8.10741 3.97222 8.49444C4.58333 8.88148 5.64259 9.28889 7.15 9.71667C8.55556 10.1241 9.61991 10.7708 10.3431 11.6569C11.0662 12.5431 11.4278 13.5667 11.4278 14.7278C11.4278 16.1741 11 17.2741 10.1444 18.0278C9.28889 18.7815 8.22963 19.25 6.96667 19.4333V22H4.52222Z" fill="#F06200"/>
</svg>
