<svg width="20" height="20" viewBox="0 0 20 20" fill="none" xmlns="http://www.w3.org/2000/svg">
<path d="M10 10.0003C10.4583 10.0003 10.8507 9.83713 11.1771 9.51074C11.5035 9.18435 11.6667 8.79199 11.6667 8.33366C11.6667 7.87533 11.5035 7.48296 11.1771 7.15658C10.8507 6.83019 10.4583 6.66699 10 6.66699C9.54167 6.66699 9.14931 6.83019 8.82292 7.15658C8.49653 7.48296 8.33333 7.87533 8.33333 8.33366C8.33333 8.79199 8.49653 9.18435 8.82292 9.51074C9.14931 9.83713 9.54167 10.0003 10 10.0003ZM10 18.3337C7.76389 16.4309 6.09375 14.6635 4.98958 13.0316C3.88542 11.3996 3.33333 9.88921 3.33333 8.50033C3.33333 6.41699 4.00347 4.75727 5.34375 3.52116C6.68403 2.28505 8.23611 1.66699 10 1.66699C11.7639 1.66699 13.316 2.28505 14.6562 3.52116C15.9965 4.75727 16.6667 6.41699 16.6667 8.50033C16.6667 9.88921 16.1146 11.3996 15.0104 13.0316C13.9062 14.6635 12.2361 16.4309 10 18.3337Z" fill="#F06200"/>
</svg>
