<svg width="33" height="33" viewBox="0 0 33 33" fill="none" xmlns="http://www.w3.org/2000/svg">
<path d="M16.5001 11C19.2043 11 21.8683 11.5443 24.4923 12.6328C27.1162 13.7214 29.448 15.3542 31.4876 17.5312C31.7626 17.8063 31.9001 18.1271 31.9001 18.4938C31.9001 18.8604 31.7626 19.1813 31.4876 19.4563L28.3251 22.55C28.073 22.8021 27.7808 22.9396 27.4485 22.9625C27.1162 22.9854 26.8126 22.8938 26.5376 22.6875L22.5501 19.6625C22.3668 19.525 22.2293 19.3646 22.1376 19.1813C22.0459 18.9979 22.0001 18.7917 22.0001 18.5625V14.6438C21.1293 14.3688 20.2355 14.151 19.3188 13.9906C18.4022 13.8302 17.4626 13.75 16.5001 13.75C15.5376 13.75 14.598 13.8302 13.6813 13.9906C12.7647 14.151 11.8709 14.3688 11.0001 14.6438V18.5625C11.0001 18.7917 10.9543 18.9979 10.8626 19.1813C10.7709 19.3646 10.6334 19.525 10.4501 19.6625L6.4626 22.6875C6.1876 22.8938 5.88395 22.9854 5.55166 22.9625C5.21937 22.9396 4.92718 22.8021 4.6751 22.55L1.5126 19.4563C1.2376 19.1813 1.1001 18.8604 1.1001 18.4938C1.1001 18.1271 1.2376 17.8063 1.5126 17.5312C3.52926 15.3542 5.85531 13.7214 8.49072 12.6328C11.1261 11.5443 13.7959 11 16.5001 11Z" fill="white"/>
</svg>
