<svg width="19" height="19" viewBox="0 0 19 19" fill="none" xmlns="http://www.w3.org/2000/svg">
<path d="M7.44167 13.0625L9.5 11.0042L11.5583 13.0625L12.6667 11.9542L10.6083 9.89583L12.6667 7.8375L11.5583 6.72917L9.5 8.7875L7.44167 6.72917L6.33334 7.8375L8.39167 9.89583L6.33334 11.9542L7.44167 13.0625ZM5.54167 16.625C5.10626 16.625 4.73351 16.47 4.42344 16.1599C4.11337 15.8498 3.95834 15.4771 3.95834 15.0417V4.75H3.16667V3.16667H7.12501V2.375H11.875V3.16667H15.8333V4.75H15.0417V15.0417C15.0417 15.4771 14.8866 15.8498 14.5766 16.1599C14.2665 16.47 13.8938 16.625 13.4583 16.625H5.54167Z" fill="#E70101"/>
</svg>
