<svg width="20" height="20" viewBox="0 0 20 20" fill="none" xmlns="http://www.w3.org/2000/svg">
<path d="M4.99998 18.3335C4.54165 18.3335 4.14929 18.1703 3.8229 17.8439C3.49651 17.5175 3.33331 17.1252 3.33331 16.6668V8.3335C3.33331 7.87516 3.49651 7.4828 3.8229 7.15641C4.14929 6.83002 4.54165 6.66683 4.99998 6.66683H5.83331V5.00016C5.83331 3.84739 6.23956 2.86475 7.05206 2.05225C7.86456 1.23975 8.8472 0.833496 9.99998 0.833496C11.1528 0.833496 12.1354 1.23975 12.9479 2.05225C13.7604 2.86475 14.1666 3.84739 14.1666 5.00016V6.66683H15C15.4583 6.66683 15.8507 6.83002 16.1771 7.15641C16.5035 7.4828 16.6666 7.87516 16.6666 8.3335V16.6668C16.6666 17.1252 16.5035 17.5175 16.1771 17.8439C15.8507 18.1703 15.4583 18.3335 15 18.3335H4.99998ZM9.99998 14.1668C10.4583 14.1668 10.8507 14.0036 11.1771 13.6772C11.5035 13.3509 11.6666 12.9585 11.6666 12.5002C11.6666 12.0418 11.5035 11.6495 11.1771 11.3231C10.8507 10.9967 10.4583 10.8335 9.99998 10.8335C9.54165 10.8335 9.14928 10.9967 8.8229 11.3231C8.49651 11.6495 8.33331 12.0418 8.33331 12.5002C8.33331 12.9585 8.49651 13.3509 8.8229 13.6772C9.14928 14.0036 9.54165 14.1668 9.99998 14.1668ZM7.49998 6.66683H12.5V5.00016C12.5 4.30572 12.2569 3.71544 11.7708 3.22933C11.2847 2.74322 10.6944 2.50016 9.99998 2.50016C9.30553 2.50016 8.71526 2.74322 8.22915 3.22933C7.74303 3.71544 7.49998 4.30572 7.49998 5.00016V6.66683Z" fill="black"/>
</svg>
